<?xml version="1.0" encoding="UTF-8"?><svg id="Layer_2" xmlns="http://www.w3.org/2000/svg" viewBox="0 0 1187.1395 212.6128"><g id="Components"><g id="eebffe3b-bcc9-46a6-bc6b-e26d0eaf65ea_1"><g><g><path d="m47.4025,139.8708c-12.6582,0-21.5702-10.5908-21.5702-24.1522v-.2594c0-13.1737,8.912-23.8937,21.5702-23.8937,8.6534,0,14.5948,4.1331,19.7614,10.5908l18.857-14.5948c-8.0072-11.1088-19.8905-18.8578-38.3606-18.8578C20.2781,68.7038,0,89.3695,0,115.7186v.2578c0,26.9945,20.7953,46.7562,46.6272,46.7562,20.0195,0,31.5152-8.6542,40.0395-20.4076l-18.8574-13.4335c-5.4243,6.5877-10.9785,10.9793-20.4068,10.9793Z" style="fill:#53555a;"/><path d="m138.4339,69.8659l-38.4901,91.0579h26.3486l6.4578-16.1446h34.8738l6.5869,16.1446h26.8658l-38.4905-91.0579h-24.1522Zm1.6793,55.41l10.2032-25.7028,10.0745,25.7028h-20.2777Z" style="fill:#53555a;"/><polygon points="247.9575 70.5117 222.9005 70.5117 222.9005 160.9238 291.7429 160.9238 291.7429 138.9672 247.9575 138.9672 247.9575 70.5117" style="fill:#53555a;"/></g><g><path d="m640.8102,69.892l-38.5109,91.1052h26.3643l6.461-16.1527h34.8918l6.5905,16.1527h26.8778l-38.5105-91.1052h-24.1638Zm1.6805,55.4373l10.2084-25.7161,10.0805,25.7161h-20.2889Z" style="fill:#53555a;"/><polygon points="708.5337 92.5056 735.6745 92.5056 735.6745 160.9972 760.7431 160.9972 760.7431 92.5056 787.8847 92.5056 787.8847 70.5366 708.5337 70.5366 708.5337 92.5056" style="fill:#53555a;"/><polygon points="806.7601 92.5056 833.9009 92.5056 833.9009 160.9972 858.9695 160.9972 858.9695 92.5056 886.1107 92.5056 886.1107 70.5366 806.7601 70.5366 806.7601 92.5056" style="fill:#53555a;"/><polygon points="934.8473 125.3289 978.2658 125.3289 978.2658 105.5567 934.8473 105.5567 934.8473 91.8614 982.7897 91.8614 982.7897 70.5366 910.0348 70.5366 910.0348 160.9972 983.4376 160.9972 983.4376 139.676 934.8473 139.676 934.8473 125.3289" style="fill:#53555a;"/><path d="m1089.4214,101.6814v-.2594c0-8.916-2.7136-15.8937-8.014-21.0618-6.0693-6.2044-15.6359-9.8232-29.4631-9.8232h-42.7719v90.4602h25.0686v-27.3965h10.9849l18.222,27.3965h28.9447l-21.5786-31.532c11.2419-4.7809,18.6072-13.9554,18.6072-27.7838Zm-25.1965,1.5502c0,6.5925-4.9144,10.728-13.4423,10.728h-16.5415v-21.7129h16.4132c8.3992,0,13.5706,3.6187,13.5706,10.728v.257Z" style="fill:#53555a;"/><path d="m1153.4095,104.6014c-12.5315-2.8422-15.6367-4.6518-15.6367-8.7873v-.2562c0-3.2315,2.9769-5.8168,9.0467-5.8168,8.014,0,17.0611,3.1024,25.332,8.9152l12.5367-17.7025c-9.8228-7.8825-21.8411-12.0176-37.2201-12.0176-21.7133,0-35.0209,12.1467-35.0209,28.9475v.2562c0,18.6105,14.8602,24.038,34.1161,28.4304,12.2741,2.843,15.2511,4.9112,15.2511,8.659v.2598c0,3.8757-3.6191,6.2016-10.3431,6.2016-10.4646,0-20.4168-3.747-29.3352-10.8566l-13.9554,16.6726c11.1132,9.949,26.3647,14.9893,42.3867,14.9893,21.969,0,36.5723-10.9853,36.5723-29.4643v-.2562c0-16.9292-12.9224-23.6507-33.73-28.1743Z" style="fill:#53555a;"/><polygon points="554.0758 70.5366 533.2978 104.2487 512.5195 70.5366 486.0327 70.5366 486.0327 160.9972 510.973 160.9972 510.973 109.0475 533.2978 143.2216 555.6224 109.0475 555.6224 160.9972 580.5627 160.9972 580.5627 70.5366 554.0758 70.5366" style="fill:#53555a;"/></g></g><g><polygon points="364.1753 134.5733 434.2143 195.4388 449.1379 178.2649 368.3513 108.0558 364.1753 134.5733" style="fill:#49bbcf;"/><polygon points="359.9993 161.0906 364.1753 134.5733 359.9993 130.9442 359.9993 161.0906" style="fill:#49bbcf;"/><polygon points="359.9993 130.9441 359.9993 130.9442 364.1753 134.5733 368.3513 108.0558 359.9993 100.7973 359.9993 130.9441" style="fill:#009abf;"/><polygon points="359.9993 100.7973 368.3513 108.0558 372.527 81.5406 359.9993 70.6505 359.9993 100.7973 359.9993 100.7973" style="fill:#0075a9;"/><polygon points="337.2471 0 337.2471 130.9448 359.9992 161.091 359.9992 0 337.2471 0" style="fill:#ff9e18;"/><polygon points="291.7429 0 291.7429 70.5604 314.495 100.8005 314.495 0 291.7429 0" style="fill:#fd0;"/><polygon points="314.495 0 314.495 100.7986 337.2471 130.9448 337.2471 0 314.495 0" style="fill:#fcbd29;"/><polygon points="359.9993 161.0906 359.9993 161.091 359.9992 161.0909 359.9992 161.091 419.2906 212.6128 434.2143 195.4388 364.1753 134.5733 359.9993 161.0906" style="fill:#7adbd4;"/><polygon points="372.527 81.5406 368.3513 108.0558 449.1379 178.2649 464.0616 161.091 372.527 81.5406" style="fill:#009abf;"/></g></g></g></svg>